<svg width="1280" height="360" viewBox="0 0 1280 360" fill="none" xmlns="http://www.w3.org/2000/svg" role="img" aria-labelledby="title desc">
  <title id="title">hipcv banner</title>
  <desc id="desc">A banner showing hipcv as an OpenCV-like image processing layer for AMD GPUs.</desc>
  <rect width="1280" height="360" fill="#101114"/>
  <path d="M0 286H1280" stroke="#2A2D34" stroke-width="2"/>
  <path d="M0 74H1280" stroke="#2A2D34" stroke-width="2"/>
  <g opacity="0.32">
    <path d="M80 0V360M160 0V360M240 0V360M320 0V360M400 0V360M480 0V360M560 0V360M640 0V360M720 0V360M800 0V360M880 0V360M960 0V360M1040 0V360M1120 0V360M1200 0V360" stroke="#272A31"/>
    <path d="M0 40H1280M0 120H1280M0 200H1280M0 280H1280" stroke="#272A31"/>
  </g>
  <rect x="72" y="78" width="288" height="204" rx="18" fill="#17191F" stroke="#3C414C"/>
  <rect x="102" y="108" width="228" height="120" rx="10" fill="#232733"/>
  <rect x="124" y="130" width="52" height="52" rx="6" fill="#EF4444"/>
  <rect x="188" y="130" width="52" height="52" rx="6" fill="#22C55E"/>
  <rect x="252" y="130" width="52" height="52" rx="6" fill="#38BDF8"/>
  <path d="M114 248H318" stroke="#707684" stroke-width="10" stroke-linecap="round"/>
  <path d="M114 248H232" stroke="#F97316" stroke-width="10" stroke-linecap="round"/>
  <text x="134" y="261" fill="#D7DBE3" font-family="Segoe UI, Arial, sans-serif" font-size="18" font-weight="600">host image</text>

  <path d="M392 180H488" stroke="#F97316" stroke-width="6" stroke-linecap="round"/>
  <path d="M470 158L492 180L470 202" stroke="#F97316" stroke-width="6" stroke-linecap="round" stroke-linejoin="round"/>

  <rect x="522" y="62" width="236" height="236" rx="24" fill="#17191F" stroke="#F97316" stroke-width="2"/>
  <path d="M582 128H698V232H582V128Z" fill="#242936" stroke="#596173" stroke-width="4"/>
  <path d="M606 154H674M606 180H674M606 206H648" stroke="#F97316" stroke-width="8" stroke-linecap="round"/>
  <text x="572" y="267" fill="#F9FAFB" font-family="Segoe UI, Arial, sans-serif" font-size="24" font-weight="700">HIP GpuMat</text>

  <path d="M790 180H886" stroke="#F97316" stroke-width="6" stroke-linecap="round"/>
  <path d="M868 158L890 180L868 202" stroke="#F97316" stroke-width="6" stroke-linecap="round" stroke-linejoin="round"/>

  <rect x="920" y="78" width="288" height="204" rx="18" fill="#17191F" stroke="#3C414C"/>
  <rect x="956" y="118" width="96" height="96" rx="14" fill="#20242D" stroke="#596173"/>
  <rect x="1076" y="118" width="96" height="96" rx="14" fill="#20242D" stroke="#596173"/>
  <path d="M980 166H1028M1004 142V190" stroke="#38BDF8" stroke-width="8" stroke-linecap="round"/>
  <path d="M1098 148H1150M1098 166H1150M1098 184H1132" stroke="#22C55E" stroke-width="8" stroke-linecap="round"/>
  <text x="963" y="252" fill="#D7DBE3" font-family="Segoe UI, Arial, sans-serif" font-size="18" font-weight="600">cvtColor · resize · blur</text>

  <text x="74" y="42" fill="#F9FAFB" font-family="Segoe UI, Arial, sans-serif" font-size="30" font-weight="800">hipcv</text>
  <text x="162" y="42" fill="#A8B0BF" font-family="Segoe UI, Arial, sans-serif" font-size="20">OpenCV-like image processing for AMD GPUs</text>
  <text x="72" y="330" fill="#A8B0BF" font-family="Segoe UI, Arial, sans-serif" font-size="20">Windows-first · HIP SDK · GPU-resident pipelines · C++ core · Python later</text>
</svg>
